<?xml version="1.0" encoding="UTF-8" standalone="no"?>
<!DOCTYPE svg PUBLIC "-//W3C//DTD SVG 1.1//EN"
 "http://www.w3.org/Graphics/SVG/1.1/DTD/svg11.dtd">
<!-- Generated by graphviz version 2.44.1 (0)
 -->
<!-- Title: DockerDeps Pages: 1 -->
<svg width="722pt" height="590pt"
 viewBox="0.00 0.00 722.00 590.00" xmlns="http://www.w3.org/2000/svg" xmlns:xlink="http://www.w3.org/1999/xlink">
<g id="graph0" class="graph" transform="scale(1 1) rotate(0) translate(4 586)">
<title>DockerDeps</title>
<polygon fill="white" stroke="transparent" points="-4,4 -4,-586 718,-586 718,4 -4,4"/>
<g id="clust1" class="cluster">
<title>clusterDockerfile</title>
<polygon fill="none" stroke="royalblue" points="285,-116 285,-503 497,-503 497,-116 285,-116"/>
<text text-anchor="middle" x="391" y="-487.8" font-family="Times,serif" font-size="14.00">docker/&lt;distro&gt;/Dockerfile</text>
</g>
<g id="clust2" class="cluster">
<title>clusterCache</title>
<polygon fill="none" stroke="royalblue" points="8,-8 8,-83 592,-83 592,-8 8,-8"/>
<text text-anchor="middle" x="300" y="-67.8" font-family="Times,serif" font-size="14.00">cache/&lt;distro&gt;/</text>
</g>
<!-- DISTRO_IMG -->
<g id="node1" class="node">
<title>DISTRO_IMG</title>
<path fill="royalblue" stroke="black" d="M378,-577.73C378,-579.53 349.31,-581 314,-581 278.69,-581 250,-579.53 250,-577.73 250,-577.73 250,-548.27 250,-548.27 250,-546.47 278.69,-545 314,-545 349.31,-545 378,-546.47 378,-548.27 378,-548.27 378,-577.73 378,-577.73"/>
<path fill="none" stroke="black" d="M378,-577.73C378,-575.92 349.31,-574.45 314,-574.45 278.69,-574.45 250,-575.92 250,-577.73"/>
<text text-anchor="middle" x="314" y="-559.3" font-family="Times,serif" font-size="14.00">&lt;distro&gt;:latest</text>
</g>
<!-- ENV_IMG -->
<g id="node4" class="node">
<title>ENV_IMG</title>
<path fill="royalblue" stroke="black" d="M478.5,-467.35C478.5,-469.99 437.49,-472.13 387,-472.13 336.51,-472.13 295.5,-469.99 295.5,-467.35 295.5,-467.35 295.5,-424.4 295.5,-424.4 295.5,-421.76 336.51,-419.62 387,-419.62 437.49,-419.62 478.5,-421.76 478.5,-424.4 478.5,-424.4 478.5,-467.35 478.5,-467.35"/>
<path fill="none" stroke="black" d="M478.5,-467.35C478.5,-464.72 437.49,-462.58 387,-462.58 336.51,-462.58 295.5,-464.72 295.5,-467.35"/>
<text text-anchor="middle" x="387" y="-449.68" font-family="Times,serif" font-size="14.00">template:&lt;distro&gt;_env</text>
<text text-anchor="middle" x="387" y="-434.68" font-family="Times,serif" font-size="14.00">env</text>
</g>
<!-- DISTRO_IMG&#45;&gt;ENV_IMG -->
<g id="edge4" class="edge">
<title>DISTRO_IMG&#45;&gt;ENV_IMG</title>
<path fill="none" stroke="black" d="M325.09,-544.51C335.77,-527.67 352.21,-501.74 365.46,-480.84"/>
<polygon fill="black" stroke="black" points="368.53,-482.55 370.92,-472.23 362.61,-478.8 368.53,-482.55"/>
</g>
<!-- PKG -->
<g id="node2" class="node">
<title>PKG</title>
<polygon fill="royalblue" stroke="black" points="523.5,-582 400.5,-582 396.5,-578 396.5,-544 519.5,-544 523.5,-548 523.5,-582"/>
<polyline fill="none" stroke="black" points="519.5,-578 396.5,-578 "/>
<polyline fill="none" stroke="black" points="519.5,-578 519.5,-544 "/>
<polyline fill="none" stroke="black" points="519.5,-578 523.5,-582 "/>
<text text-anchor="middle" x="460" y="-566.8" font-family="Times,serif" font-size="14.00">packages</text>
<text text-anchor="middle" x="460" y="-551.8" font-family="Times,serif" font-size="14.00">e.g. bazel, g++</text>
</g>
<!-- PKG&#45;&gt;ENV_IMG -->
<g id="edge5" class="edge">
<title>PKG&#45;&gt;ENV_IMG</title>
<path fill="none" stroke="black" stroke-dasharray="5,2" d="M448.43,-543.76C437.74,-526.89 421.58,-501.4 408.51,-480.8"/>
<polygon fill="black" stroke="black" points="411.44,-478.88 403.13,-472.31 405.53,-482.63 411.44,-478.88"/>
<text text-anchor="middle" x="458.5" y="-514.8" font-family="Times,serif" font-size="14.00">install</text>
</g>
<!-- SRC -->
<g id="node3" class="node">
<title>SRC</title>
<polygon fill="royalblue" stroke="black" points="578.5,-463.88 575.5,-467.88 554.5,-467.88 551.5,-463.88 505.5,-463.88 505.5,-427.88 578.5,-427.88 578.5,-463.88"/>
<text text-anchor="middle" x="542" y="-442.18" font-family="Times,serif" font-size="14.00">git repo</text>
</g>
<!-- DEVEL_IMG -->
<g id="node5" class="node">
<title>DEVEL_IMG</title>
<path fill="royalblue" stroke="black" d="M489,-364.1C489,-366.74 445.07,-368.88 391,-368.88 336.93,-368.88 293,-366.74 293,-364.1 293,-364.1 293,-321.15 293,-321.15 293,-318.51 336.93,-316.37 391,-316.37 445.07,-316.37 489,-318.51 489,-321.15 489,-321.15 489,-364.1 489,-364.1"/>
<path fill="none" stroke="black" d="M489,-364.1C489,-361.47 445.07,-359.33 391,-359.33 336.93,-359.33 293,-361.47 293,-364.1"/>
<text text-anchor="middle" x="391" y="-346.43" font-family="Times,serif" font-size="14.00">template:&lt;distro&gt;_devel</text>
<text text-anchor="middle" x="391" y="-331.43" font-family="Times,serif" font-size="14.00">devel</text>
</g>
<!-- SRC&#45;&gt;DEVEL_IMG -->
<g id="edge6" class="edge">
<title>SRC&#45;&gt;DEVEL_IMG</title>
<path fill="none" stroke="black" stroke-dasharray="5,2" d="M516.38,-427.7C494.76,-413.2 463.26,-392.08 437.25,-374.64"/>
<polygon fill="black" stroke="black" points="438.91,-371.54 428.66,-368.87 435.01,-377.35 438.91,-371.54"/>
<text text-anchor="middle" x="492" y="-390.55" font-family="Times,serif" font-size="14.00">copy</text>
</g>
<!-- ENV_IMG&#45;&gt;DEVEL_IMG -->
<g id="edge1" class="edge">
<title>ENV_IMG&#45;&gt;DEVEL_IMG</title>
<path fill="none" stroke="black" d="M388,-419.59C388.48,-407.38 389.07,-392.54 389.59,-379.22"/>
<polygon fill="black" stroke="black" points="393.1,-379.07 390,-368.94 386.11,-378.8 393.1,-379.07"/>
</g>
<!-- ENV_TAR -->
<g id="node8" class="node">
<title>ENV_TAR</title>
<polygon fill="royalblue" stroke="black" points="130,-52 16,-52 16,-16 136,-16 136,-46 130,-52"/>
<polyline fill="none" stroke="black" points="130,-52 130,-46 "/>
<polyline fill="none" stroke="black" points="136,-46 130,-46 "/>
<text text-anchor="middle" x="76" y="-30.3" font-family="Times,serif" font-size="14.00">docker_env.tar</text>
</g>
<!-- ENV_IMG&#45;&gt;ENV_TAR -->
<g id="edge7" class="edge">
<title>ENV_IMG&#45;&gt;ENV_TAR</title>
<path fill="none" stroke="red" d="M295.4,-435.03C197.13,-421.86 55,-394.09 55,-343.62 55,-343.62 55,-343.62 55,-149.12 55,-118.9 62.21,-84.91 68.18,-61.94"/>
<polygon fill="red" stroke="red" points="71.58,-62.79 70.81,-52.22 64.82,-60.96 71.58,-62.79"/>
<text text-anchor="middle" x="145.5" y="-249.68" font-family="Times,serif" font-size="14.00">make save_&lt;distro&gt;_env</text>
</g>
<!-- BUILD_IMG -->
<g id="node6" class="node">
<title>BUILD_IMG</title>
<path fill="royalblue" stroke="black" d="M489,-274.85C489,-277.49 445.52,-279.63 392,-279.63 338.48,-279.63 295,-277.49 295,-274.85 295,-274.85 295,-231.9 295,-231.9 295,-229.26 338.48,-227.12 392,-227.12 445.52,-227.12 489,-229.26 489,-231.9 489,-231.9 489,-274.85 489,-274.85"/>
<path fill="none" stroke="black" d="M489,-274.85C489,-272.22 445.52,-270.08 392,-270.08 338.48,-270.08 295,-272.22 295,-274.85"/>
<text text-anchor="middle" x="392" y="-257.18" font-family="Times,serif" font-size="14.00">template:&lt;distro&gt;_build</text>
<text text-anchor="middle" x="392" y="-242.18" font-family="Times,serif" font-size="14.00">build</text>
</g>
<!-- DEVEL_IMG&#45;&gt;BUILD_IMG -->
<g id="edge2" class="edge">
<title>DEVEL_IMG&#45;&gt;BUILD_IMG</title>
<path fill="none" stroke="black" d="M391.29,-316.39C391.38,-308.07 391.49,-298.66 391.59,-289.72"/>
<polygon fill="black" stroke="black" points="395.1,-289.59 391.71,-279.55 388.1,-289.51 395.1,-289.59"/>
</g>
<!-- DEVEL_TAR -->
<g id="node9" class="node">
<title>DEVEL_TAR</title>
<polygon fill="royalblue" stroke="black" points="283.5,-52 154.5,-52 154.5,-16 289.5,-16 289.5,-46 283.5,-52"/>
<polyline fill="none" stroke="black" points="283.5,-52 283.5,-46 "/>
<polyline fill="none" stroke="black" points="289.5,-46 283.5,-46 "/>
<text text-anchor="middle" x="222" y="-30.3" font-family="Times,serif" font-size="14.00">docker_devel.tar</text>
</g>
<!-- DEVEL_IMG&#45;&gt;DEVEL_TAR -->
<g id="edge8" class="edge">
<title>DEVEL_IMG&#45;&gt;DEVEL_TAR</title>
<path fill="none" stroke="red" d="M332.47,-316.47C315.62,-306.92 298.46,-294.62 286,-279.5 232.95,-215.12 223.4,-111.51 221.99,-62.45"/>
<polygon fill="red" stroke="red" points="225.49,-62.23 221.8,-52.3 218.49,-62.36 225.49,-62.23"/>
<text text-anchor="middle" x="343.5" y="-198.05" font-family="Times,serif" font-size="14.00">make save_&lt;distro&gt;_devel</text>
</g>
<!-- TEST_IMG -->
<g id="node7" class="node">
<title>TEST_IMG</title>
<path fill="royalblue" stroke="black" d="M481.5,-171.6C481.5,-174.24 440.04,-176.38 389,-176.38 337.96,-176.38 296.5,-174.24 296.5,-171.6 296.5,-171.6 296.5,-128.65 296.5,-128.65 296.5,-126.01 337.96,-123.87 389,-123.87 440.04,-123.87 481.5,-126.01 481.5,-128.65 481.5,-128.65 481.5,-171.6 481.5,-171.6"/>
<path fill="none" stroke="black" d="M481.5,-171.6C481.5,-168.97 440.04,-166.83 389,-166.83 337.96,-166.83 296.5,-168.97 296.5,-171.6"/>
<text text-anchor="middle" x="389" y="-153.93" font-family="Times,serif" font-size="14.00">template:&lt;distro&gt;_test</text>
<text text-anchor="middle" x="389" y="-138.93" font-family="Times,serif" font-size="14.00">test</text>
</g>
<!-- BUILD_IMG&#45;&gt;TEST_IMG -->
<g id="edge3" class="edge">
<title>BUILD_IMG&#45;&gt;TEST_IMG</title>
<path fill="none" stroke="black" d="M446.2,-227.09C457.91,-217.97 464.96,-206.8 458,-194.25 455.78,-190.25 453.02,-186.57 449.89,-183.2"/>
<polygon fill="black" stroke="black" points="452.21,-180.57 442.52,-176.29 447.43,-185.68 452.21,-180.57"/>
</g>
<!-- BUILD_TAR -->
<g id="node10" class="node">
<title>BUILD_TAR</title>
<polygon fill="royalblue" stroke="black" points="577.5,-52 450.5,-52 450.5,-16 583.5,-16 583.5,-46 577.5,-52"/>
<polyline fill="none" stroke="black" points="577.5,-52 577.5,-46 "/>
<polyline fill="none" stroke="black" points="583.5,-46 577.5,-46 "/>
<text text-anchor="middle" x="517" y="-30.3" font-family="Times,serif" font-size="14.00">docker_build.tar</text>
</g>
<!-- BUILD_IMG&#45;&gt;BUILD_TAR -->
<g id="edge9" class="edge">
<title>BUILD_IMG&#45;&gt;BUILD_TAR</title>
<path fill="none" stroke="red" d="M439.33,-227.24C447.91,-221.8 456.5,-215.73 464,-209.25 478.34,-196.86 480.89,-192.28 491,-176.25 512.67,-141.88 526.52,-131.55 524,-91 523.41,-81.58 522.28,-71.32 521.09,-62.19"/>
<polygon fill="red" stroke="red" points="524.53,-61.53 519.7,-52.1 517.6,-62.49 524.53,-61.53"/>
<text text-anchor="middle" x="618.5" y="-146.43" font-family="Times,serif" font-size="14.00">make save_&lt;distro&gt;_build</text>
</g>
<!-- TEST_TAR -->
<g id="node11" class="node">
<title>TEST_TAR</title>
<polygon fill="royalblue" stroke="black" points="426.5,-52 307.5,-52 307.5,-16 432.5,-16 432.5,-46 426.5,-52"/>
<polyline fill="none" stroke="black" points="426.5,-52 426.5,-46 "/>
<polyline fill="none" stroke="black" points="432.5,-46 426.5,-46 "/>
<text text-anchor="middle" x="370" y="-30.3" font-family="Times,serif" font-size="14.00">docker_test.tar</text>
</g>
<!-- TEST_IMG&#45;&gt;TEST_TAR -->
<g id="edge10" class="edge">
<title>TEST_IMG&#45;&gt;TEST_TAR</title>
<path fill="none" stroke="red" d="M353.43,-123.79C348.38,-118.52 343.92,-112.55 341,-106 334.33,-91.04 340.77,-74.05 349.26,-60.45"/>
<polygon fill="red" stroke="red" points="352.25,-62.28 355.02,-52.06 346.48,-58.32 352.25,-62.28"/>
<text text-anchor="middle" x="432.5" y="-94.8" font-family="Times,serif" font-size="14.00">make save_&lt;distro&gt;_test</text>
</g>
</g>
</svg>
